<svg width="29" height="29" viewBox="0 0 29 29" fill="none" xmlns="http://www.w3.org/2000/svg">
<path d="M16.8878 2C18.4065 2.00405 19.1773 2.01215 19.8428 2.03105L20.1047 2.0405C20.4071 2.0513 20.7054 2.0648 21.0659 2.081C22.5022 2.1485 23.4822 2.37529 24.3421 2.70873C25.2331 3.05162 25.9837 3.51601 26.7342 4.26524C27.4209 4.93987 27.9521 5.75625 28.2907 6.65739C28.6241 7.51732 28.8509 8.49739 28.9184 9.93511C28.9346 10.2942 28.9481 10.5925 28.9589 10.8963L28.967 11.1582C28.9873 11.8224 28.9954 12.5932 28.9981 14.1119L28.9994 15.119V16.8874C29.0027 17.8721 28.9923 18.8568 28.9684 19.8412L28.9603 20.1031C28.9495 20.4068 28.936 20.7051 28.9198 21.0642C28.8523 22.502 28.6228 23.4807 28.2907 24.342C27.9521 25.2431 27.4209 26.0595 26.7342 26.7341C26.0596 27.4208 25.2433 27.952 24.3421 28.2906C23.4822 28.6241 22.5022 28.8508 21.0659 28.9183L20.1047 28.9588L19.8428 28.9669C19.1773 28.9858 18.4065 28.9953 16.8878 28.998L15.8808 28.9993H14.1137C13.1286 29.0028 12.1435 28.9925 11.1587 28.9683L10.8968 28.9602C10.5764 28.9481 10.256 28.9341 9.93567 28.9183C8.49934 28.8508 7.51929 28.6241 6.65803 28.2906C5.7574 27.9518 4.94152 27.4207 4.2673 26.7341C3.58011 26.0596 3.04846 25.2432 2.70948 24.342C2.37605 23.482 2.14926 22.502 2.08176 21.0642L2.04127 20.1031L2.03452 19.8412C2.00963 18.8568 1.99838 17.8721 2.00077 16.8874V14.1119C1.99703 13.1272 2.00693 12.1426 2.03047 11.1582L2.03992 10.8963C2.05072 10.5925 2.06421 10.2942 2.08041 9.93511C2.14791 8.49739 2.3747 7.51867 2.70813 6.65739C3.0479 5.75588 3.58049 4.93947 4.26865 4.26524C4.94248 3.57885 5.75788 3.04767 6.65803 2.70873C7.51929 2.37529 8.49799 2.1485 9.93567 2.081C10.2947 2.0648 10.5944 2.0513 10.8968 2.0405L11.1587 2.0324C12.1431 2.00841 13.1277 1.99806 14.1124 2.00135L16.8878 2ZM15.5001 8.74984C13.71 8.74984 11.9932 9.46098 10.7274 10.7268C9.46155 11.9927 8.75043 13.7095 8.75043 15.4997C8.75043 17.2898 9.46155 19.0067 10.7274 20.2725C11.9932 21.5384 13.71 22.2495 15.5001 22.2495C17.2902 22.2495 19.007 21.5384 20.2728 20.2725C21.5386 19.0067 22.2497 17.2898 22.2497 15.4997C22.2497 13.7095 21.5386 11.9927 20.2728 10.7268C19.007 9.46098 17.2902 8.74984 15.5001 8.74984ZM15.5001 11.4498C16.0319 11.4497 16.5585 11.5543 17.0499 11.7578C17.5413 11.9612 17.9878 12.2595 18.3639 12.6355C18.74 13.0115 19.0384 13.4579 19.242 13.9492C19.4456 14.4405 19.5505 14.9672 19.5506 15.499C19.5506 16.0308 19.446 16.5575 19.2425 17.0489C19.0391 17.5403 18.7409 17.9868 18.3649 18.3629C17.9889 18.739 17.5425 19.0374 17.0512 19.241C16.5599 19.4446 16.0333 19.5495 15.5014 19.5496C14.4274 19.5496 13.3973 19.1229 12.6378 18.3634C11.8783 17.6039 11.4516 16.5738 11.4516 15.4997C11.4516 14.4256 11.8783 13.3955 12.6378 12.636C13.3973 11.8765 14.4274 11.4498 15.5014 11.4498M22.5886 6.72489C22.141 6.72489 21.7118 6.90267 21.3954 7.21913C21.0789 7.53559 20.9012 7.9648 20.9012 8.41234C20.9012 8.85989 21.0789 9.2891 21.3954 9.60556C21.7118 9.92202 22.141 10.0998 22.5886 10.0998C23.0361 10.0998 23.4653 9.92202 23.7818 9.60556C24.0982 9.2891 24.276 8.85989 24.276 8.41234C24.276 7.9648 24.0982 7.53559 23.7818 7.21913C23.4653 6.90267 23.0361 6.72489 22.5886 6.72489Z" fill="white"/>
</svg>
