<svg width="32" height="32" viewBox="0 0 32 32" fill="none" xmlns="http://www.w3.org/2000/svg">
<rect width="32" height="32" rx="16" fill="#31519F"/>
<g clip-path="url(#clip0_166_9276)">
<path fill-rule="evenodd" clip-rule="evenodd" d="M18.7597 11.0117C18.173 11.0111 17.6101 11.2436 17.1948 11.6579C16.7795 12.0722 16.5457 12.6346 16.5449 13.2212C16.5459 13.8079 16.7799 14.3701 17.1953 14.7843C17.6108 15.1985 18.1738 15.4308 18.7604 15.43C19.3471 15.4308 19.91 15.1985 20.3255 14.7843C20.741 14.3701 20.9749 13.8079 20.9759 13.2212C20.9755 12.9307 20.9179 12.643 20.8064 12.3748C20.6948 12.1065 20.5315 11.8628 20.3258 11.6576C20.12 11.4525 19.8759 11.2898 19.6073 11.179C19.3388 11.0682 19.0502 11.0113 18.7597 11.0117ZM17.6707 13.2212C17.6711 13.0784 17.6996 12.9371 17.7546 12.8053C17.8096 12.6735 17.8901 12.5538 17.9913 12.4531C18.0926 12.3524 18.2127 12.2726 18.3448 12.2184C18.4769 12.1641 18.6184 12.1363 18.7612 12.1367C19.3657 12.1367 19.8517 12.6242 19.8517 13.2212C19.8507 13.5095 19.7353 13.7856 19.5308 13.9888C19.3263 14.1921 19.0495 14.3058 18.7612 14.305C18.4729 14.3058 18.1961 14.1921 17.9916 13.9888C17.7871 13.7856 17.6717 13.5095 17.6707 13.2212Z" fill="white"/>
<path fill-rule="evenodd" clip-rule="evenodd" d="M14.1476 22.6585C14.3651 22.365 14.4791 22.0075 14.4716 21.6423C14.7656 21.7293 15.0566 21.7398 15.3356 21.6873C15.9116 21.5778 16.3384 21.2133 16.5649 20.9133L16.5686 20.908L16.5724 20.9028C16.7302 20.6876 16.8386 20.4403 16.89 20.1784C16.9413 19.9165 16.9343 19.6466 16.8694 19.3878C16.814 19.1622 16.7228 18.947 16.5994 18.7502C16.5423 18.6449 16.4739 18.5461 16.3954 18.4555L16.4021 18.448L16.7501 18.1015C17.0366 18.2388 17.3471 18.325 17.6186 18.3813C17.9946 18.4582 18.3771 18.4989 18.7609 18.5027C21.6866 18.5027 24.0626 16.1403 24.0626 13.2198C24.0626 10.3008 21.6866 7.9375 18.7601 7.9375C15.8351 7.9375 13.4584 10.3 13.4584 13.2198C13.4612 13.9011 13.6068 14.5744 13.8859 15.196L8.44386 20.6155C8.18996 20.8726 8.02043 21.2009 7.95786 21.5568C7.88361 22.009 8.00511 22.5122 8.44386 22.9487L9.10536 23.6072L9.13686 23.6373C9.39355 23.8522 9.70388 23.9932 10.0346 24.0452C10.2702 24.0817 10.511 24.061 10.7369 23.9847C10.9627 23.9085 11.1669 23.779 11.3321 23.6072L11.7566 23.1843C12.1224 23.398 12.5534 23.4715 12.9694 23.3912C13.4336 23.2993 13.8491 23.0428 14.1394 22.669L14.1439 22.6638L14.1476 22.6585ZM14.5834 13.2198C14.5834 10.9263 16.4516 9.0625 18.7609 9.0625C21.0694 9.0625 22.9376 10.9263 22.9376 13.2198C22.9376 15.5148 21.0701 17.3777 18.7601 17.3777C18.5561 17.3777 18.2029 17.353 17.8466 17.2802C17.4739 17.2022 17.1814 17.0875 17.0254 16.9578C16.9175 16.8685 16.7803 16.8227 16.6405 16.8292C16.5008 16.8357 16.3684 16.8941 16.2694 16.993L15.6079 17.6515C15.4571 17.8015 15.3116 17.9725 15.2344 18.1697C15.1369 18.4195 15.1684 18.6595 15.2794 18.8597C15.3454 18.9775 15.4519 19.09 15.4961 19.1373L15.5111 19.153C15.5636 19.2108 15.5914 19.2482 15.6124 19.2902L15.6326 19.33L15.6551 19.3615L15.6604 19.369C15.6674 19.3805 15.6779 19.3995 15.6919 19.426C15.7204 19.4808 15.7534 19.558 15.7744 19.6487C15.8017 19.7496 15.8058 19.8553 15.7863 19.9579C15.7668 20.0606 15.7242 20.1575 15.6619 20.2413C15.5569 20.3785 15.3566 20.5382 15.1264 20.5817C14.9329 20.6185 14.6179 20.5945 14.1979 20.1768C14.0924 20.0716 13.9496 20.0126 13.8007 20.0126C13.6519 20.0126 13.509 20.0716 13.4036 20.1768L13.1831 20.3958C13.0812 20.4971 13.0219 20.6336 13.0174 20.7772C13.013 20.9209 13.0637 21.0608 13.1591 21.1683C13.1681 21.1803 13.1819 21.2003 13.2004 21.2283C13.2364 21.2845 13.2784 21.3632 13.3084 21.4532C13.3654 21.622 13.3744 21.8027 13.2371 21.9977C13.1471 22.114 12.9649 22.2468 12.7579 22.2858C12.5824 22.3195 12.3574 22.2947 12.1039 22.042C11.9984 21.9369 11.8556 21.8779 11.7067 21.8779C11.5579 21.8779 11.415 21.9369 11.3096 22.042L10.5379 22.8107C10.4141 22.9337 10.3054 22.948 10.1989 22.9323C10.0833 22.911 9.97442 22.863 9.88086 22.792L9.23811 22.1515C9.05886 21.9737 9.05211 21.8365 9.06786 21.739C9.092 21.6159 9.15111 21.5024 9.23811 21.412L14.9711 15.7022C15.0609 15.6127 15.1177 15.4952 15.132 15.3692C15.1463 15.2431 15.1173 15.1159 15.0499 15.0085L15.0484 15.0063C15.0263 14.9696 15.0057 14.9321 14.9869 14.8937C14.7243 14.3746 14.5862 13.8015 14.5834 13.2198ZM13.1509 21.157C13.1509 21.158 13.1519 21.1593 13.1539 21.1608L13.1531 21.16L13.1509 21.157Z" fill="white"/>
</g>
<defs>
<clipPath id="clip0_166_9276">
<rect width="18" height="18" fill="white" transform="translate(7 7)"/>
</clipPath>
</defs>
</svg>
