<svg width="27" height="27" viewBox="0 0 27 27" fill="none" xmlns="http://www.w3.org/2000/svg">
<g clip-path="url(#clip0_404_28074)">
<path d="M13.5 0C9.92039 0 6.48422 1.4232 3.95508 3.95402C1.42335 6.48587 0.000724462 9.91951 0 13.5C0 17.079 1.42383 20.5151 3.95508 23.046C6.48422 25.5768 9.92039 27 13.5 27C17.0796 27 20.5158 25.5768 23.0449 23.046C25.5762 20.5151 27 17.079 27 13.5C27 9.92102 25.5762 6.48485 23.0449 3.95402C20.5158 1.4232 17.0796 0 13.5 0Z" fill="url(#paint0_linear_404_28074)"/>
<path d="M6.11095 13.3575C10.047 11.643 12.6711 10.5127 13.9831 9.96651C17.7336 8.40705 18.512 8.13621 19.0203 8.12703C19.1321 8.12524 19.381 8.15287 19.5434 8.28418C19.6784 8.39492 19.7164 8.54469 19.7354 8.64984C19.7523 8.75489 19.7755 8.9943 19.7565 9.18119C19.554 11.3159 18.6744 16.4961 18.2272 18.8871C18.0395 19.8987 17.6661 20.2379 17.3054 20.271C16.5207 20.3432 15.9259 19.753 15.1665 19.2554C13.9789 18.4764 13.3081 17.9916 12.1543 17.2316C10.8212 16.3533 11.686 15.8704 12.4454 15.0815C12.6437 14.875 16.0988 11.7331 16.1642 11.4481C16.1727 11.4125 16.1811 11.2796 16.1009 11.2096C16.0229 11.1393 15.9069 11.1634 15.8225 11.1824C15.7023 11.2094 13.8059 12.464 10.1272 14.9461C9.58931 15.3161 9.10204 15.4965 8.66329 15.487C8.18235 15.4766 7.25423 15.2144 6.56446 14.9904C5.72071 14.7156 5.04782 14.5702 5.10688 14.1034C5.13641 13.8604 5.47181 13.6117 6.11095 13.3575Z" fill="#1C3990"/>
</g>
<defs>
<linearGradient id="paint0_linear_404_28074" x1="1350" y1="0" x2="1350" y2="2700" gradientUnits="userSpaceOnUse">
<stop stop-color="white"/>
<stop offset="1" stop-color="white"/>
</linearGradient>
<clipPath id="clip0_404_28074">
<rect width="27" height="27" fill="white"/>
</clipPath>
</defs>
</svg>
