<svg width="307" height="51" viewBox="0 0 307 51" fill="none" xmlns="http://www.w3.org/2000/svg">
<g clip-path="url(#clip0_404_28001)">
<path d="M79.7 37.8001C77.2 36.9001 75 35.4001 73.2 33.5001V38.8001H71.3V33.5001C69.5 35.5001 67.3 37.0001 64.9 37.9001L63.5 35.9001C65.9 35.4001 68.1 34.3001 69.9 32.8001H65.1V25.3001H71.3V24.1001H63.9V22.4001H71.3V21.1001H73.2V22.4001H80.6V24.1001H73.2V25.3001H79.5V32.8001H74.7C76.6 34.2001 78.8 35.2001 81.1 35.6001L79.8 37.6001L79.7 37.8001ZM71.2 26.9001H66.9V28.3001H71.2V26.9001ZM71.2 29.8001H66.9V31.4001H71.2V29.8001ZM77.5 26.9001H73.1V28.3001H77.5V26.9001ZM77.5 29.8001H73.1V31.4001H77.5V29.8001Z" fill="white"/>
<path d="M85.4001 37.4001L84.1001 35.8001C85.8001 35.0001 87.3001 34.0001 88.5001 32.6001L90.0001 33.9001C88.7001 35.4001 87.2001 36.6001 85.4001 37.4001ZM84.5001 24.3001V22.5001H91.8001V21.1001H93.9001V22.5001H101.2V24.3001H84.5001ZM94.1001 31.9001V36.4001C94.1001 38.6001 92.6001 38.8001 90.1001 38.8001L89.3001 37.0001C91.8001 37.0001 92.1001 36.9001 92.1001 36.4001V31.9001H86.8001V25.9001H99.2001V31.9001H94.1001ZM97.3001 27.6001H88.7001V30.2001H97.3001V27.6001ZM100.2 37.3001C98.6001 36.4001 97.2001 35.3001 95.9001 34.0001L97.2001 32.6001C98.6001 33.8001 100.1 34.9001 101.7 35.7001L100.2 37.3001Z" fill="white"/>
<path d="M112.1 32.3998C111 35.1998 108.6 37.3998 105.7 38.0998V36.1998C109.1 34.7998 111 32.4998 111 27.7998V26.5998H112.9V27.8998C112.9 28.6998 112.9 29.5998 112.7 30.3998C115.6 29.8998 117.8 27.5998 118.1 24.6998H105.1V22.7998H120.4V23.0998C120.1 28.9998 116.5 31.5998 112.1 32.3998Z" fill="white"/>
<path d="M133.2 32.9001V31.0001C135.1 30.2001 136.7 28.8001 137.6 26.9001H128.9V33.6001C128.9 35.1001 129.6 36.0001 131.6 36.0001H140V37.9001H131.4C128 37.9001 126.9 36.5001 126.9 34.0001V27.0001H124V25.1001H126.9V22.1001H128.9V25.1001H140.2C139.7 28.9001 136.9 32.1001 133.2 33.0001" fill="white"/>
<path d="M145.9 31.5002C145.5 29.3002 145 27.1002 144.3 24.9002H146.2C146.9 27.1002 147.5 29.2002 147.9 31.5002H146H145.9ZM147.5 38.2002V36.4002C154 35.1002 156.1 31.0002 156.2 24.9002V24.7002H158.2V24.9002C158 32.5002 154.7 36.9002 147.5 38.2002ZM150.9 31.3002C150.5 29.1002 150 26.9002 149.4 24.7002H151.3C152 26.8002 152.5 29.0002 152.8 31.3002H150.9Z" fill="white"/>
<path d="M165.1 29.4V38.2H163V22H165.1V27.3C169 28.2 172.5 29 176 30.1V32.2C172.3 31.1 168.8 30.1 165.1 29.3" fill="white"/>
<path d="M182 30.1998C181.2 27.6998 180.2 25.2998 179.1 22.8998H181.4C182.5 25.2998 183.5 27.6998 184.3 30.1998H182.1H182ZM182.6 38.0998V36.1998C188.5 34.6998 192.2 30.9998 192.6 22.7998H194.7C194.2 32.0998 189.8 36.5998 182.5 38.0998" fill="white"/>
<path d="M199.9 22.3999H202V31.8999H199.9V22.3999ZM201.6 37.9999V36.0999C207.8 35.6999 211.2 33.9999 211.2 27.9999V22.3999H213.3V27.8999C213.3 34.6999 209.7 37.5999 201.6 37.9999Z" fill="white"/>
<path d="M217.2 37.5002V35.8002H225.9L226.8 27.0002H218.9V25.2002H229L227.9 35.8002H231.7V37.6002H217.2V37.5002Z" fill="white"/>
<path d="M250.4 28.2998H234.6V30.1998H250.4V28.2998Z" fill="white"/>
<path d="M255 29.9001V28.0001C257.6 28.1001 260.2 28.4001 262.8 28.7001V30.6001C260.5 30.3001 257.2 29.9001 255 29.8001M255.1 24.5001V22.6001C257.5 22.7001 260.6 23.0001 262.9 23.3001V25.2001C260.6 24.9001 257.3 24.5001 255.1 24.4001M255.4 37.9001V36.0001C263.4 35.6001 267.3 32.8001 268.2 25.4001H270.3C269.5 34.3001 264.1 37.7001 255.4 37.9001Z" fill="white"/>
<path d="M274.6 37.6999V35.8999H285.1V31.8999H274.9V30.1999H285.1V26.6999H274.6V24.8999H287V37.6999H274.6Z" fill="white"/>
<path d="M292.3 24.8999V22.8999C294.9 23.0999 297.5 23.5999 300.1 24.0999V26.1999C297.6 25.4999 295 25.0999 292.3 24.8999ZM292.5 37.7999V35.7999C299 35.1999 303.8 33.1999 304.8 25.3999H307C306 34.0999 300.6 37.2999 292.5 37.6999" fill="white"/>
<path d="M34 35.4V11.9L24.3 8.5V0L8.2 8.4V36.5L0 38L14.7 45.6L24.4 50.6L48.7 37.9L34.1 35.2L34 35.4Z" fill="white"/>
<path d="M8.2 36.5999L0 38.0999L14.7 45.6999L8.2 42.2999V36.5999ZM34 35.3999V38.9999L24.3 42.3999V50.7999L48.6 38.0999L34 35.3999Z" fill="#B4B4B4"/>
<path d="M24.3 8.5V33.6L34 35.4V11.9L24.3 8.5Z" fill="#AAAAAA"/>
<path d="M24.3 33.6V42.3L34 38.9V35.3L24.3 33.5" fill="#D9D9D9"/>
<path d="M24.2999 0L8.19995 8.4V36.5L14.7 35.3V5.1L24.4 8.5V0H24.2999Z" fill="#B4B4B4"/>
<path d="M24.2999 42.2999L14.6 45.6999L24.2999 50.6999V42.2999ZM14.7 35.3999L8.19995 36.5999V42.2999L14.7 45.6999V35.3999Z" fill="#EAEAEA"/>
<path d="M14.7 5.1001V35.4001L24.4 33.6001V8.5001L14.7 5.1001Z" fill="#D9D9D9"/>
<path d="M24.3001 33.6001L14.6001 35.4001V45.7001L24.3001 42.3001V33.6001Z" fill="white"/>
<rect width="251" height="32" transform="translate(59 13)" fill="#05284B"/>
<path d="M64.4175 25.1911V22.9091H75.1689V25.1911H71.1611V36H68.4253V25.1911H64.4175ZM77.5963 36H74.6304L79.1496 22.9091H82.7164L87.2291 36H84.2632L80.9841 25.9006H80.8818L77.5963 36ZM77.411 30.8544H84.4166V33.0149H77.411V30.8544ZM95.6075 26.674C95.5564 26.1584 95.3369 25.7578 94.9491 25.4723C94.5613 25.1868 94.0351 25.044 93.3703 25.044C92.9186 25.044 92.5372 25.108 92.2261 25.2358C91.915 25.3594 91.6764 25.532 91.5102 25.7536C91.3483 25.9751 91.2673 26.2266 91.2673 26.5078C91.2588 26.7422 91.3078 26.9467 91.4143 27.1214C91.5251 27.2962 91.6764 27.4474 91.8682 27.5753C92.0599 27.6989 92.2815 27.8075 92.5329 27.9013C92.7844 27.9908 93.0528 28.0675 93.3383 28.1314L94.5145 28.4126C95.0855 28.5405 95.6096 28.7109 96.0869 28.924C96.5642 29.1371 96.9775 29.3991 97.327 29.7102C97.6764 30.0213 97.947 30.3878 98.1388 30.8097C98.3348 31.2315 98.4349 31.7152 98.4392 32.2607C98.4349 33.0618 98.2304 33.7564 97.8256 34.3445C97.425 34.9283 96.8454 35.3821 96.0869 35.706C95.3327 36.0256 94.4229 36.1854 93.3575 36.1854C92.3007 36.1854 91.3802 36.0234 90.5961 35.6996C89.8163 35.3757 89.2069 34.8963 88.768 34.2614C88.3334 33.6222 88.1054 32.8317 88.0841 31.8899H90.7623C90.7922 32.3288 90.9179 32.6953 91.1395 32.9893C91.3653 33.2791 91.6657 33.4986 92.0407 33.6477C92.42 33.7926 92.8483 33.8651 93.3256 33.8651C93.7943 33.8651 94.2013 33.7969 94.5464 33.6605C94.8959 33.5241 95.1665 33.3345 95.3582 33.0916C95.55 32.8487 95.6459 32.5696 95.6459 32.2543C95.6459 31.9602 95.5585 31.7131 95.3838 31.5128C95.2133 31.3125 94.9619 31.142 94.6295 31.0014C94.3014 30.8608 93.8987 30.733 93.4214 30.6179L91.996 30.2599C90.8923 29.9915 90.0209 29.5717 89.3817 29.0007C88.7425 28.4297 88.425 27.6605 88.4292 26.6932C88.425 25.9006 88.6359 25.2081 89.0621 24.6158C89.4925 24.0234 90.0827 23.5611 90.8327 23.2287C91.5827 22.8963 92.4349 22.7301 93.3895 22.7301C94.3611 22.7301 95.2091 22.8963 95.9335 23.2287C96.6622 23.5611 97.229 24.0234 97.6338 24.6158C98.0386 25.2081 98.2474 25.8942 98.2602 26.674H95.6075ZM116.017 27.4922H113.218C113.166 27.13 113.062 26.8082 112.904 26.527C112.747 26.2415 112.544 25.9986 112.297 25.7983C112.05 25.598 111.764 25.4446 111.441 25.3381C111.121 25.2315 110.774 25.1783 110.399 25.1783C109.721 25.1783 109.131 25.3466 108.628 25.6832C108.125 26.0156 107.735 26.5014 107.458 27.1406C107.181 27.7756 107.043 28.5469 107.043 29.4545C107.043 30.3878 107.181 31.1719 107.458 31.8068C107.74 32.4418 108.132 32.9212 108.634 33.245C109.137 33.5689 109.719 33.7308 110.38 33.7308C110.75 33.7308 111.093 33.6818 111.409 33.5838C111.728 33.4858 112.012 33.343 112.259 33.1555C112.506 32.9638 112.71 32.7315 112.872 32.4588C113.039 32.1861 113.154 31.875 113.218 31.5256L116.017 31.5384C115.945 32.1392 115.764 32.7188 115.474 33.277C115.188 33.831 114.803 34.3274 114.317 34.7663C113.835 35.201 113.26 35.5462 112.591 35.8018C111.926 36.0533 111.174 36.179 110.335 36.179C109.167 36.179 108.123 35.9148 107.203 35.3864C106.286 34.858 105.562 34.093 105.029 33.0916C104.501 32.0902 104.237 30.8778 104.237 29.4545C104.237 28.027 104.505 26.8125 105.042 25.8111C105.579 24.8097 106.308 24.0469 107.228 23.5227C108.149 22.9943 109.184 22.7301 110.335 22.7301C111.093 22.7301 111.796 22.8366 112.444 23.0497C113.096 23.2628 113.674 23.5739 114.176 23.983C114.679 24.3878 115.088 24.8842 115.404 25.4723C115.723 26.0604 115.928 26.7337 116.017 27.4922ZM120.751 36.1854C120.124 36.1854 119.566 36.0767 119.076 35.8594C118.586 35.6378 118.198 35.3118 117.913 34.8814C117.631 34.4467 117.491 33.9055 117.491 33.2578C117.491 32.7124 117.591 32.2543 117.791 31.8835C117.991 31.5128 118.264 31.2145 118.609 30.9886C118.954 30.7628 119.347 30.5923 119.785 30.4773C120.229 30.3622 120.693 30.2812 121.179 30.2344C121.75 30.1747 122.21 30.1193 122.56 30.0682C122.909 30.0128 123.163 29.9318 123.32 29.8253C123.478 29.7187 123.557 29.5611 123.557 29.3523V29.3139C123.557 28.9091 123.429 28.5959 123.173 28.3743C122.922 28.1527 122.564 28.0419 122.099 28.0419C121.609 28.0419 121.219 28.1506 120.93 28.3679C120.64 28.581 120.448 28.8494 120.354 29.1733L117.836 28.9688C117.964 28.3722 118.215 27.8565 118.59 27.4219C118.965 26.983 119.449 26.6463 120.041 26.4119C120.638 26.1733 121.328 26.054 122.112 26.054C122.658 26.054 123.18 26.1179 123.678 26.2457C124.181 26.3736 124.626 26.5717 125.014 26.8402C125.406 27.1087 125.715 27.4538 125.941 27.8757C126.167 28.2933 126.28 28.794 126.28 29.3778V36H123.697V34.6385H123.621C123.463 34.9453 123.252 35.2159 122.988 35.4503C122.724 35.6804 122.406 35.8615 122.035 35.9936C121.665 36.1214 121.236 36.1854 120.751 36.1854ZM121.53 34.3061C121.931 34.3061 122.285 34.2273 122.592 34.0696C122.898 33.9077 123.139 33.6903 123.314 33.4176C123.489 33.1449 123.576 32.8359 123.576 32.4908V31.4489C123.491 31.5043 123.373 31.5554 123.224 31.6023C123.079 31.6449 122.915 31.6854 122.732 31.7237C122.549 31.7578 122.366 31.7898 122.182 31.8196C121.999 31.8452 121.833 31.8686 121.684 31.8899C121.364 31.9368 121.085 32.0114 120.847 32.1136C120.608 32.2159 120.422 32.3544 120.29 32.5291C120.158 32.6996 120.092 32.9126 120.092 33.1683C120.092 33.5391 120.226 33.8224 120.495 34.0185C120.768 34.2102 121.113 34.3061 121.53 34.3061ZM128.392 39.6818V26.1818H131.077V27.831H131.198C131.318 27.5668 131.49 27.2983 131.716 27.0256C131.946 26.7486 132.245 26.5185 132.611 26.3352C132.982 26.1477 133.442 26.054 133.992 26.054C134.708 26.054 135.368 26.2415 135.973 26.6165C136.578 26.9872 137.062 27.5476 137.424 28.2976C137.786 29.0433 137.968 29.9787 137.968 31.1037C137.968 32.1989 137.791 33.1236 137.437 33.8778C137.088 34.6278 136.61 35.1967 136.005 35.5845C135.404 35.968 134.731 36.1598 133.985 36.1598C133.457 36.1598 133.007 36.0724 132.637 35.8977C132.27 35.723 131.97 35.5036 131.735 35.2393C131.501 34.9709 131.322 34.7003 131.198 34.4276H131.115V39.6818H128.392ZM131.058 31.0909C131.058 31.6747 131.139 32.1839 131.301 32.6186C131.463 33.0533 131.697 33.392 132.004 33.6349C132.311 33.8736 132.684 33.9929 133.122 33.9929C133.566 33.9929 133.941 33.8714 134.247 33.6286C134.554 33.3814 134.786 33.0405 134.944 32.6058C135.106 32.1669 135.187 31.6619 135.187 31.0909C135.187 30.5241 135.108 30.0256 134.951 29.5952C134.793 29.1648 134.561 28.8281 134.254 28.5852C133.947 28.3423 133.57 28.2209 133.122 28.2209C132.679 28.2209 132.304 28.3381 131.997 28.5724C131.695 28.8068 131.463 29.1392 131.301 29.5696C131.139 30 131.058 30.5071 131.058 31.0909ZM139.783 36V26.1818H142.506V36H139.783ZM141.151 24.9162C140.746 24.9162 140.399 24.782 140.109 24.5135C139.823 24.2408 139.681 23.9148 139.681 23.5355C139.681 23.1605 139.823 22.8388 140.109 22.5703C140.399 22.2976 140.746 22.1612 141.151 22.1612C141.556 22.1612 141.901 22.2976 142.186 22.5703C142.476 22.8388 142.621 23.1605 142.621 23.5355C142.621 23.9148 142.476 24.2408 142.186 24.5135C141.901 24.782 141.556 24.9162 141.151 24.9162ZM149.91 26.1818V28.2273H143.997V26.1818H149.91ZM145.339 23.8295H148.062V32.983C148.062 33.2344 148.101 33.4304 148.177 33.571C148.254 33.7074 148.361 33.8033 148.497 33.8587C148.638 33.9141 148.799 33.9418 148.983 33.9418C149.111 33.9418 149.238 33.9311 149.366 33.9098C149.494 33.8842 149.592 33.8651 149.66 33.8523L150.089 35.8786C149.952 35.9212 149.76 35.9702 149.513 36.0256C149.266 36.0852 148.966 36.1214 148.612 36.1342C147.956 36.1598 147.38 36.0724 146.886 35.8722C146.396 35.6719 146.015 35.3608 145.742 34.9389C145.469 34.517 145.335 33.9844 145.339 33.3409V23.8295ZM154.483 36.1854C153.857 36.1854 153.298 36.0767 152.808 35.8594C152.318 35.6378 151.93 35.3118 151.645 34.8814C151.364 34.4467 151.223 33.9055 151.223 33.2578C151.223 32.7124 151.323 32.2543 151.524 31.8835C151.724 31.5128 151.997 31.2145 152.342 30.9886C152.687 30.7628 153.079 30.5923 153.518 30.4773C153.961 30.3622 154.426 30.2812 154.911 30.2344C155.482 30.1747 155.943 30.1193 156.292 30.0682C156.641 30.0128 156.895 29.9318 157.053 29.8253C157.21 29.7187 157.289 29.5611 157.289 29.3523V29.3139C157.289 28.9091 157.161 28.5959 156.906 28.3743C156.654 28.1527 156.296 28.0419 155.832 28.0419C155.342 28.0419 154.952 28.1506 154.662 28.3679C154.372 28.581 154.18 28.8494 154.087 29.1733L151.568 28.9688C151.696 28.3722 151.948 27.8565 152.323 27.4219C152.698 26.983 153.181 26.6463 153.774 26.4119C154.37 26.1733 155.06 26.054 155.845 26.054C156.39 26.054 156.912 26.1179 157.411 26.2457C157.913 26.3736 158.359 26.5717 158.747 26.8402C159.139 27.1087 159.448 27.4538 159.673 27.8757C159.899 28.2933 160.012 28.794 160.012 29.3778V36H157.43V34.6385H157.353C157.195 34.9453 156.984 35.2159 156.72 35.4503C156.456 35.6804 156.139 35.8615 155.768 35.9936C155.397 36.1214 154.969 36.1854 154.483 36.1854ZM155.263 34.3061C155.663 34.3061 156.017 34.2273 156.324 34.0696C156.631 33.9077 156.872 33.6903 157.046 33.4176C157.221 33.1449 157.308 32.8359 157.308 32.4908V31.4489C157.223 31.5043 157.106 31.5554 156.957 31.6023C156.812 31.6449 156.648 31.6854 156.465 31.7237C156.281 31.7578 156.098 31.7898 155.915 31.8196C155.732 31.8452 155.565 31.8686 155.416 31.8899C155.097 31.9368 154.818 32.0114 154.579 32.1136C154.34 32.2159 154.155 32.3544 154.023 32.5291C153.891 32.6996 153.825 32.9126 153.825 33.1683C153.825 33.5391 153.959 33.8224 154.227 34.0185C154.5 34.2102 154.845 34.3061 155.263 34.3061ZM164.848 22.9091V36H162.125V22.9091H164.848ZM171.246 36V22.9091H176.411C177.404 22.9091 178.25 23.0987 178.949 23.478C179.647 23.853 180.18 24.375 180.547 25.044C180.917 25.7088 181.103 26.4759 181.103 27.3452C181.103 28.2145 180.915 28.9815 180.54 29.6463C180.165 30.3111 179.622 30.8288 178.91 31.1996C178.203 31.5703 177.346 31.7557 176.341 31.7557H173.049V29.5376H175.893C176.426 29.5376 176.865 29.446 177.21 29.2628C177.559 29.0753 177.819 28.8175 177.99 28.4893C178.165 28.157 178.252 27.7756 178.252 27.3452C178.252 26.9105 178.165 26.5312 177.99 26.2074C177.819 25.8793 177.559 25.6257 177.21 25.4467C176.861 25.2635 176.417 25.1719 175.88 25.1719H174.014V36H171.246ZM185.385 36.1854C184.759 36.1854 184.201 36.0767 183.711 35.8594C183.221 35.6378 182.833 35.3118 182.547 34.8814C182.266 34.4467 182.125 33.9055 182.125 33.2578C182.125 32.7124 182.226 32.2543 182.426 31.8835C182.626 31.5128 182.899 31.2145 183.244 30.9886C183.589 30.7628 183.981 30.5923 184.42 30.4773C184.863 30.3622 185.328 30.2812 185.814 30.2344C186.385 30.1747 186.845 30.1193 187.194 30.0682C187.544 30.0128 187.797 29.9318 187.955 29.8253C188.113 29.7187 188.191 29.5611 188.191 29.3523V29.3139C188.191 28.9091 188.064 28.5959 187.808 28.3743C187.557 28.1527 187.199 28.0419 186.734 28.0419C186.244 28.0419 185.854 28.1506 185.564 28.3679C185.275 28.581 185.083 28.8494 184.989 29.1733L182.471 28.9688C182.598 28.3722 182.85 27.8565 183.225 27.4219C183.6 26.983 184.084 26.6463 184.676 26.4119C185.272 26.1733 185.963 26.054 186.747 26.054C187.292 26.054 187.814 26.1179 188.313 26.2457C188.816 26.3736 189.261 26.5717 189.649 26.8402C190.041 27.1087 190.35 27.4538 190.576 27.8757C190.802 28.2933 190.915 28.794 190.915 29.3778V36H188.332V34.6385H188.255C188.098 34.9453 187.887 35.2159 187.623 35.4503C187.358 35.6804 187.041 35.8615 186.67 35.9936C186.299 36.1214 185.871 36.1854 185.385 36.1854ZM186.165 34.3061C186.566 34.3061 186.919 34.2273 187.226 34.0696C187.533 33.9077 187.774 33.6903 187.949 33.4176C188.123 33.1449 188.211 32.8359 188.211 32.4908V31.4489C188.125 31.5043 188.008 31.5554 187.859 31.6023C187.714 31.6449 187.55 31.6854 187.367 31.7237C187.184 31.7578 187 31.7898 186.817 31.8196C186.634 31.8452 186.468 31.8686 186.319 31.8899C185.999 31.9368 185.72 32.0114 185.481 32.1136C185.243 32.2159 185.057 32.3544 184.925 32.5291C184.793 32.6996 184.727 32.9126 184.727 33.1683C184.727 33.5391 184.861 33.8224 185.13 34.0185C185.402 34.2102 185.748 34.3061 186.165 34.3061ZM193.027 36V26.1818H195.667V27.8949H195.769C195.948 27.2855 196.249 26.8253 196.671 26.5142C197.092 26.1989 197.578 26.0412 198.128 26.0412C198.264 26.0412 198.411 26.0497 198.569 26.0668C198.727 26.0838 198.865 26.1072 198.984 26.1371V28.5533C198.857 28.5149 198.68 28.4808 198.454 28.451C198.228 28.4212 198.021 28.4062 197.834 28.4062C197.433 28.4062 197.075 28.4936 196.76 28.6683C196.449 28.8388 196.202 29.0774 196.019 29.3842C195.84 29.6911 195.75 30.0447 195.75 30.4453V36H193.027ZM206.107 26.1818V28.2273H200.194V26.1818H206.107ZM201.536 23.8295H204.259V32.983C204.259 33.2344 204.298 33.4304 204.375 33.571C204.451 33.7074 204.558 33.8033 204.694 33.8587C204.835 33.9141 204.997 33.9418 205.18 33.9418C205.308 33.9418 205.436 33.9311 205.563 33.9098C205.691 33.8842 205.789 33.8651 205.858 33.8523L206.286 35.8786C206.149 35.9212 205.958 35.9702 205.71 36.0256C205.463 36.0852 205.163 36.1214 204.809 36.1342C204.153 36.1598 203.578 36.0724 203.083 35.8722C202.593 35.6719 202.212 35.3608 201.939 34.9389C201.666 34.517 201.532 33.9844 201.536 33.3409V23.8295ZM210.604 30.3239V36H207.881V26.1818H210.476V27.9141H210.591C210.808 27.343 211.172 26.8913 211.684 26.5589C212.195 26.2223 212.815 26.054 213.544 26.054C214.226 26.054 214.82 26.2031 215.327 26.5014C215.834 26.7997 216.229 27.2259 216.51 27.7798C216.791 28.3295 216.932 28.9858 216.932 29.7486V36H214.209V30.2344C214.213 29.6335 214.06 29.1648 213.748 28.8281C213.437 28.4872 213.009 28.3168 212.464 28.3168C212.097 28.3168 211.773 28.3956 211.492 28.5533C211.215 28.7109 210.998 28.9411 210.84 29.2436C210.687 29.5419 210.608 29.902 210.604 30.3239ZM223.552 36.1918C222.542 36.1918 221.673 35.9872 220.944 35.5781C220.22 35.1648 219.662 34.581 219.27 33.8267C218.878 33.0682 218.682 32.1712 218.682 31.1357C218.682 30.1257 218.878 29.2393 219.27 28.4766C219.662 27.7138 220.214 27.1193 220.925 26.6932C221.641 26.267 222.481 26.054 223.444 26.054C224.091 26.054 224.694 26.1584 225.253 26.3672C225.815 26.5717 226.305 26.8807 226.723 27.294C227.145 27.7074 227.473 28.2273 227.707 28.8537C227.941 29.4759 228.059 30.2045 228.059 31.0398V31.7876H219.768V30.1001H225.495C225.495 29.7081 225.41 29.3608 225.24 29.0582C225.069 28.7557 224.833 28.5192 224.53 28.3487C224.232 28.174 223.885 28.0866 223.488 28.0866C223.075 28.0866 222.709 28.1825 222.389 28.3743C222.074 28.5618 221.826 28.8153 221.647 29.1349C221.468 29.4503 221.377 29.8018 221.373 30.1896V31.794C221.373 32.2798 221.462 32.6996 221.641 33.0533C221.824 33.407 222.082 33.6797 222.415 33.8714C222.747 34.0632 223.141 34.1591 223.597 34.1591C223.9 34.1591 224.177 34.1165 224.428 34.0312C224.679 33.946 224.895 33.8182 225.074 33.6477C225.253 33.4773 225.389 33.2685 225.483 33.0213L228.001 33.1875C227.873 33.7926 227.611 34.321 227.215 34.7727C226.823 35.2202 226.316 35.5696 225.694 35.821C225.076 36.0682 224.362 36.1918 223.552 36.1918ZM229.836 36V26.1818H232.476V27.8949H232.578C232.757 27.2855 233.057 26.8253 233.479 26.5142C233.901 26.1989 234.387 26.0412 234.937 26.0412C235.073 26.0412 235.22 26.0497 235.378 26.0668C235.535 26.0838 235.674 26.1072 235.793 26.1371V28.5533C235.665 28.5149 235.488 28.4808 235.263 28.451C235.037 28.4212 234.83 28.4062 234.642 28.4062C234.242 28.4062 233.884 28.4936 233.569 28.6683C233.258 28.8388 233.01 29.0774 232.827 29.3842C232.648 29.6911 232.559 30.0447 232.559 30.4453V36H229.836ZM245.37 28.9815L242.877 29.1349C242.834 28.9219 242.743 28.7301 242.602 28.5597C242.462 28.3849 242.276 28.2464 242.046 28.1442C241.82 28.0376 241.55 27.9844 241.234 27.9844C240.812 27.9844 240.457 28.0739 240.167 28.2528C239.877 28.4276 239.732 28.6619 239.732 28.956C239.732 29.1903 239.826 29.3885 240.013 29.5504C240.201 29.7124 240.523 29.8423 240.979 29.9403L242.756 30.2983C243.71 30.4943 244.422 30.8097 244.891 31.2443C245.359 31.679 245.594 32.25 245.594 32.9574C245.594 33.6009 245.404 34.1655 245.025 34.6513C244.65 35.1371 244.134 35.5163 243.478 35.7891C242.826 36.0575 242.074 36.1918 241.222 36.1918C239.922 36.1918 238.886 35.9212 238.115 35.38C237.348 34.8345 236.898 34.093 236.766 33.1555L239.445 33.0149C239.525 33.4112 239.722 33.7138 240.033 33.9226C240.344 34.1271 240.742 34.2294 241.228 34.2294C241.705 34.2294 242.089 34.1378 242.378 33.9545C242.672 33.767 242.822 33.5263 242.826 33.2322C242.822 32.9851 242.717 32.7827 242.513 32.625C242.308 32.4631 241.993 32.3395 241.567 32.2543L239.866 31.9155C238.908 31.7237 238.194 31.3913 237.725 30.9183C237.261 30.4453 237.028 29.8423 237.028 29.1094C237.028 28.4787 237.199 27.9354 237.54 27.4794C237.885 27.0234 238.369 26.6719 238.991 26.4247C239.617 26.1776 240.35 26.054 241.19 26.054C242.43 26.054 243.405 26.3161 244.117 26.8402C244.833 27.3643 245.251 28.0781 245.37 28.9815Z" fill="white"/>
</g>
<defs>
<clipPath id="clip0_404_28001">
<rect width="307" height="50.7" fill="white"/>
</clipPath>
</defs>
</svg>
