<svg width="32" height="32" viewBox="0 0 32 32" fill="none" xmlns="http://www.w3.org/2000/svg">
<rect width="32" height="32" rx="16" fill="#31519F"/>
<path d="M16 8.49953C14.4529 8.49953 12.9692 9.11411 11.8752 10.2081C10.7812 11.302 10.1667 12.7858 10.1667 14.3329C10.1667 16.7179 11.6517 19.0187 13.2817 20.8012C14.1151 21.7092 15.0245 22.5445 16 23.2979C16.1456 23.1862 16.3164 23.0501 16.5125 22.8895C17.2957 22.2464 18.0328 21.5491 18.7183 20.8029C20.3483 19.0187 21.8333 16.7187 21.8333 14.3329C21.8333 12.7858 21.2188 11.302 20.1248 10.2081C19.0308 9.11411 17.5471 8.49953 16 8.49953ZM16 25.3445L15.5275 25.0195L15.525 25.0179L15.52 25.0137L15.5033 25.002L15.4408 24.9579L15.2158 24.7937C14.0757 23.9369 13.0166 22.9773 12.0517 21.927C10.3483 20.062 8.5 17.3629 8.5 14.332C8.5 12.3429 9.29018 10.4353 10.6967 9.02873C12.1032 7.62221 14.0109 6.83203 16 6.83203C17.9891 6.83203 19.8968 7.62221 21.3033 9.02873C22.7098 10.4353 23.5 12.3429 23.5 14.332C23.5 17.3629 21.6517 20.0629 19.9483 21.9254C18.9837 22.9756 17.9248 23.9351 16.785 24.792C16.69 24.863 16.5942 24.9327 16.4975 25.0012L16.48 25.0129L16.475 25.017L16.4733 25.0179L16 25.3445ZM16 12.6662C15.558 12.6662 15.134 12.8418 14.8215 13.1544C14.5089 13.4669 14.3333 13.8908 14.3333 14.3329C14.3333 14.7749 14.5089 15.1988 14.8215 15.5114C15.134 15.8239 15.558 15.9995 16 15.9995C16.442 15.9995 16.866 15.8239 17.1785 15.5114C17.4911 15.1988 17.6667 14.7749 17.6667 14.3329C17.6667 13.8908 17.4911 13.4669 17.1785 13.1544C16.866 12.8418 16.442 12.6662 16 12.6662ZM12.6667 14.3329C12.6667 13.4488 13.0179 12.601 13.643 11.9758C14.2681 11.3507 15.1159 10.9995 16 10.9995C16.8841 10.9995 17.7319 11.3507 18.357 11.9758C18.9821 12.601 19.3333 13.4488 19.3333 14.3329C19.3333 15.2169 18.9821 16.0648 18.357 16.6899C17.7319 17.315 16.8841 17.6662 16 17.6662C15.1159 17.6662 14.2681 17.315 13.643 16.6899C13.0179 16.0648 12.6667 15.2169 12.6667 14.3329Z" fill="white"/>
</svg>
