<svg width="27" height="27" viewBox="0 0 27 27" fill="none" xmlns="http://www.w3.org/2000/svg">
<g clip-path="url(#clip0_674_4957)">
<path d="M13.5 0C9.92039 0 6.48422 1.4232 3.95508 3.95402C1.42335 6.48587 0.000724462 9.91951 0 13.5C0 17.079 1.42383 20.5151 3.95508 23.046C6.48422 25.5768 9.92039 27 13.5 27C17.0796 27 20.5158 25.5768 23.0449 23.046C25.5762 20.5151 27 17.079 27 13.5C27 9.92102 25.5762 6.48485 23.0449 3.95402C20.5158 1.4232 17.0796 0 13.5 0Z" fill="url(#paint0_linear_674_4957)"/>
<path d="M6.11095 13.3574C10.047 11.6429 12.6711 10.5126 13.9831 9.96639C17.7336 8.40693 18.512 8.13609 19.0203 8.12691C19.1321 8.12512 19.381 8.15275 19.5434 8.28406C19.6784 8.3948 19.7164 8.54457 19.7354 8.64972C19.7523 8.75477 19.7755 8.99418 19.7565 9.18107C19.554 11.3158 18.6744 16.496 18.2272 18.8869C18.0395 19.8986 17.6661 20.2378 17.3054 20.2709C16.5207 20.343 15.9259 19.7528 15.1665 19.2552C13.9789 18.4762 13.3081 17.9915 12.1543 17.2315C10.8212 16.3532 11.686 15.8703 12.4454 15.0814C12.6437 14.8749 16.0988 11.733 16.1642 11.448C16.1727 11.4124 16.1811 11.2795 16.1009 11.2094C16.0229 11.1392 15.9069 11.1633 15.8225 11.1822C15.7023 11.2092 13.8059 12.4639 10.1272 14.946C9.5893 15.316 9.10204 15.4963 8.66329 15.4868C8.18235 15.4765 7.25423 15.2143 6.56446 14.9903C5.72071 14.7154 5.04782 14.5701 5.10688 14.1033C5.13641 13.8603 5.47181 13.6116 6.11095 13.3574Z" fill="white"/>
</g>
<defs>
<linearGradient id="paint0_linear_674_4957" x1="1350" y1="0" x2="1350" y2="2700" gradientUnits="userSpaceOnUse">
<stop stop-color="#31519F"/>
<stop offset="1" stop-color="#31519F"/>
</linearGradient>
<clipPath id="clip0_674_4957">
<rect width="27" height="27" fill="white"/>
</clipPath>
</defs>
</svg>
